$MeshFormat
2.2 0 8
$EndMeshFormat
$Comments
cu_dished_2d: x-y section (not to scale)

                              y
                              ^
       (x=-5, y=5)            |             (x=5, y=5)
                    +\___________________/+
                    |  dished_top (13)    |   center: y=4.5
          side (12) |                     | side (12)
          fixed     |     copper (1)      | fixed
                    |                     |
                    +---------------------+----> x
                         bottom (11), fixed
                    x=-5       y=0       x=5

Boundary-condition labels describe the pCuProtrusion example; the mesh stores
physical attributes but does not itself impose constraints.
$EndComments
$PhysicalNames
4
1 11 "bottom"
1 12 "side"
1 13 "dished_top"
2 1 "copper"
$EndPhysicalNames
$Nodes
231
1 -5 0 0
2 -4.5 0 0
3 -4 0 0
4 -3.5 0 0
5 -3 0 0
6 -2.5 0 0
7 -2 0 0
8 -1.5 0 0
9 -1 0 0
10 -0.5 0 0
11 0 0 0
12 0.5 0 0
13 1 0 0
14 1.5 0 0
15 2 0 0
16 2.5 0 0
17 3 0 0
18 3.5 0 0
19 4 0 0
20 4.5 0 0
21 5 0 0
22 -5 0.5 0
23 -4.5 0.4904225711401143 0
24 -4 0.4818844792108006 0
25 -3.5 0.474375078105475 0
26 -3 0.46788512429127 0
27 -2.5 0.462406718149553 0
28 -2 0.4579332547586269 0
29 -1.5 0.4544593833861754 0
30 -1 0.451980975101456 0
31 -0.5 0.4504950980439748 0
32 0 0.45 0
33 0.5 0.4504950980439748 0
34 1 0.451980975101456 0
35 1.5 0.4544593833861754 0
36 2 0.4579332547586269 0
37 2.5 0.462406718149553 0
38 3 0.46788512429127 0
39 3.5 0.474375078105475 0
40 4 0.4818844792108006 0
41 4.5 0.4904225711401143 0
42 5 0.5 0
43 -5 1 0
44 -4.5 0.9808451422802286 0
45 -4 0.9637689584216013 0
46 -3.5 0.94875015621095 0
47 -3 0.93577024858254 0
48 -2.5 0.9248134362991061 0
49 -2 0.9158665095172538 0
50 -1.5 0.9089187667723508 0
51 -1 0.9039619502029119 0
52 -0.5 0.9009901960879496 0
53 0 0.9 0
54 0.5 0.9009901960879496 0
55 1 0.9039619502029119 0
56 1.5 0.9089187667723508 0
57 2 0.9158665095172538 0
58 2.5 0.9248134362991061 0
59 3 0.93577024858254 0
60 3.5 0.94875015621095 0
61 4 0.9637689584216013 0
62 4.5 0.9808451422802286 0
63 5 1 0
64 -5 1.5 0
65 -4.5 1.471267713420343 0
66 -4 1.445653437632402 0
67 -3.5 1.423125234316425 0
68 -3 1.40365537287381 0
69 -2.5 1.387220154448659 0
70 -2 1.373799764275881 0
71 -1.5 1.363378150158526 0
72 -1 1.355942925304368 0
73 -0.5 1.351485294131924 0
74 0 1.35 0
75 0.5 1.351485294131924 0
76 1 1.355942925304368 0
77 1.5 1.363378150158526 0
78 2 1.373799764275881 0
79 2.5 1.387220154448659 0
80 3 1.40365537287381 0
81 3.5 1.423125234316425 0
82 4 1.445653437632402 0
83 4.5 1.471267713420343 0
84 5 1.5 0
85 -5 2 0
86 -4.5 1.961690284560457 0
87 -4 1.927537916843203 0
88 -3.5 1.8975003124219 0
89 -3 1.87154049716508 0
90 -2.5 1.849626872598212 0
91 -2 1.831733019034508 0
92 -1.5 1.817837533544702 0
93 -1 1.807923900405824 0
94 -0.5 1.801980392175899 0
95 0 1.8 0
96 0.5 1.801980392175899 0
97 1 1.807923900405824 0
98 1.5 1.817837533544702 0
99 2 1.831733019034508 0
100 2.5 1.849626872598212 0
101 3 1.87154049716508 0
102 3.5 1.8975003124219 0
103 4 1.927537916843203 0
104 4.5 1.961690284560457 0
105 5 2 0
106 -5 2.5 0
107 -4.5 2.452112855700571 0
108 -4 2.409422396054003 0
109 -3.5 2.371875390527375 0
110 -3 2.33942562145635 0
111 -2.5 2.312033590747765 0
112 -2 2.289666273793134 0
113 -1.5 2.272296916930877 0
114 -1 2.25990487550728 0
115 -0.5 2.252475490219874 0
116 0 2.25 0
117 0.5 2.252475490219874 0
118 1 2.25990487550728 0
119 1.5 2.272296916930877 0
120 2 2.289666273793134 0
121 2.5 2.312033590747765 0
122 3 2.33942562145635 0
123 3.5 2.371875390527375 0
124 4 2.409422396054003 0
125 4.5 2.452112855700571 0
126 5 2.5 0
127 -5 3 0
128 -4.5 2.942535426840685 0
129 -4 2.891306875264803 0
130 -3.5 2.84625046863285 0
131 -3 2.80731074574762 0
132 -2.5 2.774440308897318 0
133 -2 2.747599528551761 0
134 -1.5 2.726756300317052 0
135 -1 2.711885850608736 0
136 -0.5 2.702970588263849 0
137 0 2.7 0
138 0.5 2.702970588263849 0
139 1 2.711885850608736 0
140 1.5 2.726756300317052 0
141 2 2.747599528551761 0
142 2.5 2.774440308897318 0
143 3 2.80731074574762 0
144 3.5 2.84625046863285 0
145 4 2.891306875264803 0
146 4.5 2.942535426840685 0
147 5 3 0
148 -5 3.5 0
149 -4.5 3.4329579979808 0
150 -4 3.373191354475604 0
151 -3.5 3.320625546738325 0
152 -3 3.275195870038889 0
153 -2.5 3.236847027046871 0
154 -2 3.205532783310388 0
155 -1.5 3.181215683703227 0
156 -1 3.163866825710191 0
157 -0.5 3.153465686307824 0
158 0 3.15 0
159 0.5 3.153465686307824 0
160 1 3.163866825710191 0
161 1.5 3.181215683703227 0
162 2 3.205532783310388 0
163 2.5 3.236847027046871 0
164 3 3.275195870038889 0
165 3.5 3.320625546738325 0
166 4 3.373191354475604 0
167 4.5 3.4329579979808 0
168 5 3.5 0
169 -5 4 0
170 -4.5 3.923380569120914 0
171 -4 3.855075833686405 0
172 -3.5 3.7950006248438 0
173 -3 3.74308099433016 0
174 -2.5 3.699253745196424 0
175 -2 3.663466038069015 0
176 -1.5 3.635675067089403 0
177 -1 3.615847800811648 0
178 -0.5 3.603960784351798 0
179 0 3.6 0
180 0.5 3.603960784351798 0
181 1 3.615847800811648 0
182 1.5 3.635675067089403 0
183 2 3.663466038069015 0
184 2.5 3.699253745196424 0
185 3 3.74308099433016 0
186 3.5 3.7950006248438 0
187 4 3.855075833686405 0
188 4.5 3.923380569120914 0
189 5 4 0
190 -5 4.5 0
191 -4.5 4.413803140261028 0
192 -4 4.336960312897205 0
193 -3.5 4.269375702949275 0
194 -3 4.21096611862143 0
195 -2.5 4.161660463345977 0
196 -2 4.121399292827642 0
197 -1.5 4.090134450475579 0
198 -1 4.067828775913104 0
199 -0.5 4.054455882395773 0
200 0 4.05 0
201 0.5 4.054455882395773 0
202 1 4.067828775913104 0
203 1.5 4.090134450475579 0
204 2 4.121399292827642 0
205 2.5 4.161660463345977 0
206 3 4.21096611862143 0
207 3.5 4.269375702949275 0
208 4 4.336960312897205 0
209 4.5 4.413803140261028 0
210 5 4.5 0
211 -5 5 0
212 -4.5 4.904225711401143 0
213 -4 4.818844792108006 0
214 -3.5 4.74375078105475 0
215 -3 4.6788512429127 0
216 -2.5 4.62406718149553 0
217 -2 4.579332547586269 0
218 -1.5 4.544593833861754 0
219 -1 4.519809751014559 0
220 -0.5 4.504950980439748 0
221 0 4.5 0
222 0.5 4.504950980439748 0
223 1 4.519809751014559 0
224 1.5 4.544593833861754 0
225 2 4.579332547586269 0
226 2.5 4.62406718149553 0
227 3 4.6788512429127 0
228 3.5 4.74375078105475 0
229 4 4.818844792108006 0
230 4.5 4.904225711401143 0
231 5 5 0
$EndNodes
$Elements
260
1 1 2 11 11 1 2
2 1 2 11 11 2 3
3 1 2 11 11 3 4
4 1 2 11 11 4 5
5 1 2 11 11 5 6
6 1 2 11 11 6 7
7 1 2 11 11 7 8
8 1 2 11 11 8 9
9 1 2 11 11 9 10
10 1 2 11 11 10 11
11 1 2 11 11 11 12
12 1 2 11 11 12 13
13 1 2 11 11 13 14
14 1 2 11 11 14 15
15 1 2 11 11 15 16
16 1 2 11 11 16 17
17 1 2 11 11 17 18
18 1 2 11 11 18 19
19 1 2 11 11 19 20
20 1 2 11 11 20 21
21 1 2 12 12 22 1
22 1 2 12 12 43 22
23 1 2 12 12 64 43
24 1 2 12 12 85 64
25 1 2 12 12 106 85
26 1 2 12 12 127 106
27 1 2 12 12 148 127
28 1 2 12 12 169 148
29 1 2 12 12 190 169
30 1 2 12 12 211 190
31 1 2 12 12 21 42
32 1 2 12 12 42 63
33 1 2 12 12 63 84
34 1 2 12 12 84 105
35 1 2 12 12 105 126
36 1 2 12 12 126 147
37 1 2 12 12 147 168
38 1 2 12 12 168 189
39 1 2 12 12 189 210
40 1 2 12 12 210 231
41 1 2 13 13 212 211
42 1 2 13 13 213 212
43 1 2 13 13 214 213
44 1 2 13 13 215 214
45 1 2 13 13 216 215
46 1 2 13 13 217 216
47 1 2 13 13 218 217
48 1 2 13 13 219 218
49 1 2 13 13 220 219
50 1 2 13 13 221 220
51 1 2 13 13 222 221
52 1 2 13 13 223 222
53 1 2 13 13 224 223
54 1 2 13 13 225 224
55 1 2 13 13 226 225
56 1 2 13 13 227 226
57 1 2 13 13 228 227
58 1 2 13 13 229 228
59 1 2 13 13 230 229
60 1 2 13 13 231 230
61 3 2 1 1 1 2 23 22
62 3 2 1 1 2 3 24 23
63 3 2 1 1 3 4 25 24
64 3 2 1 1 4 5 26 25
65 3 2 1 1 5 6 27 26
66 3 2 1 1 6 7 28 27
67 3 2 1 1 7 8 29 28
68 3 2 1 1 8 9 30 29
69 3 2 1 1 9 10 31 30
70 3 2 1 1 10 11 32 31
71 3 2 1 1 11 12 33 32
72 3 2 1 1 12 13 34 33
73 3 2 1 1 13 14 35 34
74 3 2 1 1 14 15 36 35
75 3 2 1 1 15 16 37 36
76 3 2 1 1 16 17 38 37
77 3 2 1 1 17 18 39 38
78 3 2 1 1 18 19 40 39
79 3 2 1 1 19 20 41 40
80 3 2 1 1 20 21 42 41
81 3 2 1 1 22 23 44 43
82 3 2 1 1 23 24 45 44
83 3 2 1 1 24 25 46 45
84 3 2 1 1 25 26 47 46
85 3 2 1 1 26 27 48 47
86 3 2 1 1 27 28 49 48
87 3 2 1 1 28 29 50 49
88 3 2 1 1 29 30 51 50
89 3 2 1 1 30 31 52 51
90 3 2 1 1 31 32 53 52
91 3 2 1 1 32 33 54 53
92 3 2 1 1 33 34 55 54
93 3 2 1 1 34 35 56 55
94 3 2 1 1 35 36 57 56
95 3 2 1 1 36 37 58 57
96 3 2 1 1 37 38 59 58
97 3 2 1 1 38 39 60 59
98 3 2 1 1 39 40 61 60
99 3 2 1 1 40 41 62 61
100 3 2 1 1 41 42 63 62
101 3 2 1 1 43 44 65 64
102 3 2 1 1 44 45 66 65
103 3 2 1 1 45 46 67 66
104 3 2 1 1 46 47 68 67
105 3 2 1 1 47 48 69 68
106 3 2 1 1 48 49 70 69
107 3 2 1 1 49 50 71 70
108 3 2 1 1 50 51 72 71
109 3 2 1 1 51 52 73 72
110 3 2 1 1 52 53 74 73
111 3 2 1 1 53 54 75 74
112 3 2 1 1 54 55 76 75
113 3 2 1 1 55 56 77 76
114 3 2 1 1 56 57 78 77
115 3 2 1 1 57 58 79 78
116 3 2 1 1 58 59 80 79
117 3 2 1 1 59 60 81 80
118 3 2 1 1 60 61 82 81
119 3 2 1 1 61 62 83 82
120 3 2 1 1 62 63 84 83
121 3 2 1 1 64 65 86 85
122 3 2 1 1 65 66 87 86
123 3 2 1 1 66 67 88 87
124 3 2 1 1 67 68 89 88
125 3 2 1 1 68 69 90 89
126 3 2 1 1 69 70 91 90
127 3 2 1 1 70 71 92 91
128 3 2 1 1 71 72 93 92
129 3 2 1 1 72 73 94 93
130 3 2 1 1 73 74 95 94
131 3 2 1 1 74 75 96 95
132 3 2 1 1 75 76 97 96
133 3 2 1 1 76 77 98 97
134 3 2 1 1 77 78 99 98
135 3 2 1 1 78 79 100 99
136 3 2 1 1 79 80 101 100
137 3 2 1 1 80 81 102 101
138 3 2 1 1 81 82 103 102
139 3 2 1 1 82 83 104 103
140 3 2 1 1 83 84 105 104
141 3 2 1 1 85 86 107 106
142 3 2 1 1 86 87 108 107
143 3 2 1 1 87 88 109 108
144 3 2 1 1 88 89 110 109
145 3 2 1 1 89 90 111 110
146 3 2 1 1 90 91 112 111
147 3 2 1 1 91 92 113 112
148 3 2 1 1 92 93 114 113
149 3 2 1 1 93 94 115 114
150 3 2 1 1 94 95 116 115
151 3 2 1 1 95 96 117 116
152 3 2 1 1 96 97 118 117
153 3 2 1 1 97 98 119 118
154 3 2 1 1 98 99 120 119
155 3 2 1 1 99 100 121 120
156 3 2 1 1 100 101 122 121
157 3 2 1 1 101 102 123 122
158 3 2 1 1 102 103 124 123
159 3 2 1 1 103 104 125 124
160 3 2 1 1 104 105 126 125
161 3 2 1 1 106 107 128 127
162 3 2 1 1 107 108 129 128
163 3 2 1 1 108 109 130 129
164 3 2 1 1 109 110 131 130
165 3 2 1 1 110 111 132 131
166 3 2 1 1 111 112 133 132
167 3 2 1 1 112 113 134 133
168 3 2 1 1 113 114 135 134
169 3 2 1 1 114 115 136 135
170 3 2 1 1 115 116 137 136
171 3 2 1 1 116 117 138 137
172 3 2 1 1 117 118 139 138
173 3 2 1 1 118 119 140 139
174 3 2 1 1 119 120 141 140
175 3 2 1 1 120 121 142 141
176 3 2 1 1 121 122 143 142
177 3 2 1 1 122 123 144 143
178 3 2 1 1 123 124 145 144
179 3 2 1 1 124 125 146 145
180 3 2 1 1 125 126 147 146
181 3 2 1 1 127 128 149 148
182 3 2 1 1 128 129 150 149
183 3 2 1 1 129 130 151 150
184 3 2 1 1 130 131 152 151
185 3 2 1 1 131 132 153 152
186 3 2 1 1 132 133 154 153
187 3 2 1 1 133 134 155 154
188 3 2 1 1 134 135 156 155
189 3 2 1 1 135 136 157 156
190 3 2 1 1 136 137 158 157
191 3 2 1 1 137 138 159 158
192 3 2 1 1 138 139 160 159
193 3 2 1 1 139 140 161 160
194 3 2 1 1 140 141 162 161
195 3 2 1 1 141 142 163 162
196 3 2 1 1 142 143 164 163
197 3 2 1 1 143 144 165 164
198 3 2 1 1 144 145 166 165
199 3 2 1 1 145 146 167 166
200 3 2 1 1 146 147 168 167
201 3 2 1 1 148 149 170 169
202 3 2 1 1 149 150 171 170
203 3 2 1 1 150 151 172 171
204 3 2 1 1 151 152 173 172
205 3 2 1 1 152 153 174 173
206 3 2 1 1 153 154 175 174
207 3 2 1 1 154 155 176 175
208 3 2 1 1 155 156 177 176
209 3 2 1 1 156 157 178 177
210 3 2 1 1 157 158 179 178
211 3 2 1 1 158 159 180 179
212 3 2 1 1 159 160 181 180
213 3 2 1 1 160 161 182 181
214 3 2 1 1 161 162 183 182
215 3 2 1 1 162 163 184 183
216 3 2 1 1 163 164 185 184
217 3 2 1 1 164 165 186 185
218 3 2 1 1 165 166 187 186
219 3 2 1 1 166 167 188 187
220 3 2 1 1 167 168 189 188
221 3 2 1 1 169 170 191 190
222 3 2 1 1 170 171 192 191
223 3 2 1 1 171 172 193 192
224 3 2 1 1 172 173 194 193
225 3 2 1 1 173 174 195 194
226 3 2 1 1 174 175 196 195
227 3 2 1 1 175 176 197 196
228 3 2 1 1 176 177 198 197
229 3 2 1 1 177 178 199 198
230 3 2 1 1 178 179 200 199
231 3 2 1 1 179 180 201 200
232 3 2 1 1 180 181 202 201
233 3 2 1 1 181 182 203 202
234 3 2 1 1 182 183 204 203
235 3 2 1 1 183 184 205 204
236 3 2 1 1 184 185 206 205
237 3 2 1 1 185 186 207 206
238 3 2 1 1 186 187 208 207
239 3 2 1 1 187 188 209 208
240 3 2 1 1 188 189 210 209
241 3 2 1 1 190 191 212 211
242 3 2 1 1 191 192 213 212
243 3 2 1 1 192 193 214 213
244 3 2 1 1 193 194 215 214
245 3 2 1 1 194 195 216 215
246 3 2 1 1 195 196 217 216
247 3 2 1 1 196 197 218 217
248 3 2 1 1 197 198 219 218
249 3 2 1 1 198 199 220 219
250 3 2 1 1 199 200 221 220
251 3 2 1 1 200 201 222 221
252 3 2 1 1 201 202 223 222
253 3 2 1 1 202 203 224 223
254 3 2 1 1 203 204 225 224
255 3 2 1 1 204 205 226 225
256 3 2 1 1 205 206 227 226
257 3 2 1 1 206 207 228 227
258 3 2 1 1 207 208 229 228
259 3 2 1 1 208 209 230 229
260 3 2 1 1 209 210 231 230
$EndElements
