MFEM mesh v1.0

#
# MFEM Geometry Types (see mesh/geom.hpp):
#
# POINT       = 0
# SEGMENT     = 1
# TRIANGLE    = 2
# SQUARE      = 3
# TETRAHEDRON = 4
# CUBE        = 5
#
# Geometry and j2_tensile boundary conditions (not to scale):
#
#                    boundary 2: prescribed u_y
#                  7---------8---------9
#                  |         |         |
# boundary 3: free |         |         | boundary 4: free
#                  6\        |         |
# boundary 6: free   \       |         |
#                     4------5
# boundary 5: free   /|      |         |
#                  3/ |      |         |
#                  |  |      |         |
#                  0--1------2
#                       boundary 1: u_x = u_y = 0
#
# Boundaries 5 and 6 are the lower and upper notch faces, respectively;
# vertex 4 is the notch tip. Boundary-condition labels describe the
# j2_tensile example, not constraints stored by the mesh format.

dimension
2

elements
4
1 3 0 1 4 3
1 3 1 2 5 4
1 3 6 4 8 7
1 3 4 5 9 8

boundary
10
1 1 0 1
1 1 1 2
2 1 8 7
2 1 9 8
3 1 3 0
3 1 7 6
4 1 2 5 
4 1 5 9
5 1 4 3
6 1 6 4

vertices
10
2
-.000005 -.000005
0 -.000005
.000005 -.000005
-.000005 -0.00000005
0 0
.000005 0
-.000005 0.00000005
-.000005 .000005
0 .000005
.000005 .000005
